# MagicaVoxel @ Ephtracy

# group
o 

# material
mtllib bronie.mtl
usemtl palette

# normals
vn -1 0 0
vn 1 0 0
vn 0 0 1
vn 0 0 -1
vn 0 -1 0
vn 0 1 0

# texcoords
vt 0.939453 0.5
vt 0.943359 0.5
vt 0.958984 0.5
vt 0.962891 0.5
vt 0.970703 0.5
vt 0.974609 0.5
vt 0.978516 0.5
vt 0.982422 0.5
vt 0.990234 0.5
vt 0.994141 0.5

# verts
v -0.1 0 0.6
v -0.1 0 0.5
v -0.1 0 -0.1
v -0.1 0 -0.2
v -0.1 0 -0.9
v -0.1 0 -1
v -0.1 0 -1.2
v -0.1 0 -1.3
v -0.1 0 -1.7
v -0.1 0 -1.8
v -0.1 0.2 0.7
v -0.1 0.2 0.6
v -0.1 0.2 0.5
v -0.1 0.2 0.4
v -0.1 0.2 -0.8
v -0.1 0.2 -0.9
v -0.1 0.2 -1
v -0.1 0.2 -1.1
v -0.1 0.2 -1.6
v -0.1 0.2 -1.7
v -0.1 0.2 -1.8
v -0.1 0.2 -1.9
v -0.1 0.3 0.8
v -0.1 0.3 0.7
v -0.1 0.3 0.6
v -0.1 0.3 0.5
v -0.1 0.3 0.4
v -0.1 0.3 0.3
v -0.1 0.3 -0.8
v -0.1 0.3 -0.9
v -0.1 0.3 -1
v -0.1 0.3 -1.1
v -0.1 0.3 -1.5
v -0.1 0.3 -1.6
v -0.1 0.3 -1.7
v -0.1 0.3 -1.8
v -0.1 0.3 -1.9
v -0.1 0.3 -2
v -0.1 0.4 -0.7
v -0.1 0.4 -0.8
v -0.1 0.4 -0.9
v -0.1 0.4 -1.5
v -0.1 0.4 -1.6
v -0.1 0.4 -1.7
v -0.1 0.4 -1.8
v -0.1 0.4 -1.9
v -0.1 0.4 -2
v -0.1 0.5 0.8
v -0.1 0.5 0.7
v -0.1 0.5 0.4
v -0.1 0.5 0.3
v -0.1 0.5 -0.8
v -0.1 0.5 -0.9
v -0.1 0.7 -0.8
v -0.1 0.7 -0.9
v -0.1 0.8 0.2
v -0.1 0.8 0.1
v -0.1 0.8 -0.4
v -0.1 0.8 -0.5
v -0.1 0.9 0.3
v -0.1 0.9 0.2
v -0.1 0.9 0.1
v -0.1 0.9 0
v -0.1 0.9 -0.3
v -0.1 0.9 -0.4
v -0.1 0.9 -0.5
v -0.1 0.9 -0.6
v -0.1 0.9 -0.9
v -0.1 0.9 -1
v -0.1 0.9 -1.1
v -0.1 1 0.6
v -0.1 1 0.5
v -0.1 1 0.2
v -0.1 1 0.1
v -0.1 1 0
v -0.1 1 -0.1
v -0.1 1 -0.2
v -0.1 1 -0.3
v -0.1 1 -0.4
v -0.1 1 -0.5
v -0.1 1.1 0.2
v -0.1 1.1 0.1
v -0.1 1.1 -0.4
v -0.1 1.1 -0.5
v -0.1 1.1 -0.8
v -0.1 1.1 -0.9
v -0.1 1.2 0.2
v -0.1 1.2 0.1
v -0.1 1.2 0
v -0.1 1.2 -0.1
v -0.1 1.2 -0.2
v -0.1 1.2 -0.3
v -0.1 1.2 -0.4
v -0.1 1.2 -1.1
v -0.1 1.2 -1.2
v -0.1 1.2 -1.3
v -0.1 1.2 -1.4
v -0.1 1.3 0.3
v -0.1 1.3 0.2
v -0.1 1.3 0.1
v -0.1 1.3 0
v -0.1 1.3 -0.3
v -0.1 1.3 -0.4
v -0.1 1.3 -0.5
v -0.1 1.3 -0.6
v -0.1 1.3 -1.1
v -0.1 1.3 -1.2
v -0.1 1.3 -1.3
v -0.1 1.3 -1.4
v -0.1 1.4 0.2
v -0.1 1.4 0.1
v -0.1 1.4 -0.1
v -0.1 1.4 -0.2
v -0.1 1.4 -0.4
v -0.1 1.4 -0.5
v -0.1 1.4 -0.8
v -0.1 1.4 -0.9
v -0.1 1.4 -1
v -0.1 1.4 -1.3
v -0.1 1.4 -1.4
v -0.1 1.4 -1.5
v -0.1 1.4 -1.6
v -0.1 1.4 -1.7
v -0.1 1.4 -1.8
v -0.1 1.4 -1.9
v -0.1 1.5 -0.8
v -0.1 1.5 -0.9
v -0.1 1.5 -1.2
v -0.1 1.5 -1.3
v -0.1 1.5 -1.7
v -0.1 1.5 -1.8
v -0.1 1.6 -0.7
v -0.1 1.6 -0.8
v -0.1 1.6 -1.4
v -0.1 1.6 -1.5
v -0.1 1.7 -1.3
v -0.1 1.7 -1.4
v -0.1 1.9 -1.3
v -0.1 1.9 -1.4
v -0.1 2 -1.4
v -0.1 2 -1.5
v -0.1 2.1 -1.2
v -0.1 2.1 -1.3
v -0.1 2.2 -1.4
v -0.1 2.2 -1.5
v -0.1 2.4 -1.3
v -0.1 2.4 -1.4
v -0.1 2.4 -1.5
v -0.1 2.5 -1.1
v -0.1 2.5 -1.2
v -0.1 2.5 -1.3
v -0.1 2.5 -1.4
v -0.1 2.6 -1.1
v -0.1 2.6 -1.4
v 0 0 0.6
v 0 0 0.5
v 0 0 -0.1
v 0 0 -0.2
v 0 0 -0.9
v 0 0 -1
v 0 0 -1.2
v 0 0 -1.3
v 0 0 -1.7
v 0 0 -1.8
v 0 0.2 0.7
v 0 0.2 0.6
v 0 0.2 0.5
v 0 0.2 0.4
v 0 0.2 -0.8
v 0 0.2 -0.9
v 0 0.2 -1
v 0 0.2 -1.1
v 0 0.2 -1.6
v 0 0.2 -1.7
v 0 0.2 -1.8
v 0 0.2 -1.9
v 0 0.3 0.8
v 0 0.3 0.7
v 0 0.3 0.6
v 0 0.3 0.5
v 0 0.3 0.4
v 0 0.3 0.3
v 0 0.3 -0.8
v 0 0.3 -0.9
v 0 0.3 -1
v 0 0.3 -1.1
v 0 0.3 -1.5
v 0 0.3 -1.6
v 0 0.3 -1.7
v 0 0.3 -1.8
v 0 0.3 -1.9
v 0 0.3 -2
v 0 0.4 -0.7
v 0 0.4 -0.8
v 0 0.4 -0.9
v 0 0.4 -1.5
v 0 0.4 -1.6
v 0 0.4 -1.7
v 0 0.4 -1.8
v 0 0.4 -1.9
v 0 0.4 -2
v 0 0.5 0.8
v 0 0.5 0.7
v 0 0.5 0.4
v 0 0.5 0.3
v 0 0.5 -0.8
v 0 0.5 -0.9
v 0 0.7 -0.8
v 0 0.7 -0.9
v 0 0.8 0.2
v 0 0.8 0.1
v 0 0.8 -0.4
v 0 0.8 -0.5
v 0 0.9 0.3
v 0 0.9 0.2
v 0 0.9 0.1
v 0 0.9 0
v 0 0.9 -0.3
v 0 0.9 -0.4
v 0 0.9 -0.5
v 0 0.9 -0.6
v 0 0.9 -0.9
v 0 0.9 -1
v 0 0.9 -1.1
v 0 1 0.6
v 0 1 0.5
v 0 1 0.2
v 0 1 0.1
v 0 1 0
v 0 1 -0.1
v 0 1 -0.2
v 0 1 -0.3
v 0 1 -0.4
v 0 1 -0.5
v 0 1.1 0.2
v 0 1.1 0.1
v 0 1.1 -0.4
v 0 1.1 -0.5
v 0 1.1 -0.8
v 0 1.1 -0.9
v 0 1.2 0.2
v 0 1.2 0.1
v 0 1.2 0
v 0 1.2 -0.1
v 0 1.2 -0.2
v 0 1.2 -0.3
v 0 1.2 -0.4
v 0 1.2 -1.1
v 0 1.2 -1.2
v 0 1.2 -1.3
v 0 1.2 -1.4
v 0 1.3 0.3
v 0 1.3 0.2
v 0 1.3 0.1
v 0 1.3 0
v 0 1.3 -0.3
v 0 1.3 -0.4
v 0 1.3 -0.5
v 0 1.3 -0.6
v 0 1.3 -1.1
v 0 1.3 -1.2
v 0 1.3 -1.3
v 0 1.3 -1.4
v 0 1.4 0.2
v 0 1.4 0.1
v 0 1.4 -0.1
v 0 1.4 -0.2
v 0 1.4 -0.4
v 0 1.4 -0.5
v 0 1.4 -0.8
v 0 1.4 -0.9
v 0 1.4 -1
v 0 1.4 -1.3
v 0 1.4 -1.4
v 0 1.4 -1.5
v 0 1.4 -1.6
v 0 1.4 -1.7
v 0 1.4 -1.8
v 0 1.4 -1.9
v 0 1.5 -0.8
v 0 1.5 -0.9
v 0 1.5 -1.2
v 0 1.5 -1.3
v 0 1.5 -1.7
v 0 1.5 -1.8
v 0 1.6 -0.7
v 0 1.6 -0.8
v 0 1.6 -1.4
v 0 1.6 -1.5
v 0 1.7 -1.3
v 0 1.7 -1.4
v 0 1.9 -1.3
v 0 1.9 -1.4
v 0 2 -1.4
v 0 2 -1.5
v 0 2.1 -1.2
v 0 2.1 -1.3
v 0 2.2 -1.4
v 0 2.2 -1.5
v 0 2.4 -1.3
v 0 2.4 -1.4
v 0 2.4 -1.5
v 0 2.5 -1.1
v 0 2.5 -1.2
v 0 2.5 -1.3
v 0 2.5 -1.4
v 0 2.6 -1.1
v 0 2.6 -1.4
v -0.1 0.3 0.8
v -0.1 0.5 0.8
v 0 0.3 0.8
v 0 0.5 0.8
v -0.1 0.2 0.7
v -0.1 0.3 0.7
v 0 0.2 0.7
v 0 0.3 0.7
v -0.1 0 0.6
v -0.1 0.2 0.6
v -0.1 0.3 0.6
v -0.1 1 0.6
v 0 0 0.6
v 0 0.2 0.6
v 0 0.3 0.6
v 0 1 0.6
v -0.1 0.3 0.4
v -0.1 0.5 0.4
v 0 0.3 0.4
v 0 0.5 0.4
v -0.1 0.9 0.3
v -0.1 1.3 0.3
v 0 0.9 0.3
v 0 1.3 0.3
v -0.1 0.8 0.2
v -0.1 0.9 0.2
v -0.1 1.3 0.2
v -0.1 1.4 0.2
v 0 0.8 0.2
v 0 0.9 0.2
v 0 1.3 0.2
v 0 1.4 0.2
v -0.1 0 -0.1
v -0.1 1 -0.1
v -0.1 1.2 -0.1
v -0.1 1.4 -0.1
v 0 0 -0.1
v 0 1 -0.1
v 0 1.2 -0.1
v 0 1.4 -0.1
v -0.1 0.9 -0.3
v -0.1 1 -0.3
v -0.1 1.2 -0.3
v -0.1 1.3 -0.3
v 0 0.9 -0.3
v 0 1 -0.3
v 0 1.2 -0.3
v 0 1.3 -0.3
v -0.1 0.8 -0.4
v -0.1 0.9 -0.4
v -0.1 1.3 -0.4
v -0.1 1.4 -0.4
v 0 0.8 -0.4
v 0 0.9 -0.4
v 0 1.3 -0.4
v 0 1.4 -0.4
v -0.1 0.4 -0.7
v -0.1 1.6 -0.7
v 0 0.4 -0.7
v 0 1.6 -0.7
v -0.1 0.2 -0.8
v -0.1 0.3 -0.8
v -0.1 0.4 -0.8
v 0 0.2 -0.8
v 0 0.3 -0.8
v 0 0.4 -0.8
v -0.1 0 -0.9
v -0.1 0.2 -0.9
v 0 0 -0.9
v 0 0.2 -0.9
v -0.1 1.2 -1.1
v -0.1 1.3 -1.1
v -0.1 2.5 -1.1
v -0.1 2.6 -1.1
v 0 1.2 -1.1
v 0 1.3 -1.1
v 0 2.5 -1.1
v 0 2.6 -1.1
v -0.1 0 -1.2
v -0.1 1.2 -1.2
v -0.1 1.3 -1.2
v -0.1 1.5 -1.2
v -0.1 2.1 -1.2
v -0.1 2.5 -1.2
v 0 0 -1.2
v 0 1.2 -1.2
v 0 1.3 -1.2
v 0 1.5 -1.2
v 0 2.1 -1.2
v 0 2.5 -1.2
v -0.1 0.3 -1.5
v -0.1 0.4 -1.5
v 0 0.3 -1.5
v 0 0.4 -1.5
v -0.1 0.2 -1.6
v -0.1 0.3 -1.6
v -0.1 0.4 -1.6
v -0.1 1.4 -1.6
v 0 0.2 -1.6
v 0 0.3 -1.6
v 0 0.4 -1.6
v 0 1.4 -1.6
v -0.1 0 -1.7
v -0.1 0.2 -1.7
v -0.1 1.4 -1.7
v -0.1 1.5 -1.7
v 0 0 -1.7
v 0 0.2 -1.7
v 0 1.4 -1.7
v 0 1.5 -1.7
v -0.1 0.3 0.7
v -0.1 0.5 0.7
v 0 0.3 0.7
v 0 0.5 0.7
v -0.1 0 0.5
v -0.1 0.2 0.5
v -0.1 0.3 0.5
v -0.1 1 0.5
v 0 0 0.5
v 0 0.2 0.5
v 0 0.3 0.5
v 0 1 0.5
v -0.1 0.2 0.4
v -0.1 0.3 0.4
v 0 0.2 0.4
v 0 0.3 0.4
v -0.1 0.3 0.3
v -0.1 0.5 0.3
v 0 0.3 0.3
v 0 0.5 0.3
v -0.1 0.8 0.1
v -0.1 0.9 0.1
v -0.1 1.3 0.1
v -0.1 1.4 0.1
v 0 0.8 0.1
v 0 0.9 0.1
v 0 1.3 0.1
v 0 1.4 0.1
v -0.1 0.9 0
v -0.1 1 0
v -0.1 1.2 0
v -0.1 1.3 0
v 0 0.9 0
v 0 1 0
v 0 1.2 0
v 0 1.3 0
v -0.1 0 -0.2
v -0.1 1 -0.2
v -0.1 1.2 -0.2
v -0.1 1.4 -0.2
v 0 0 -0.2
v 0 1 -0.2
v 0 1.2 -0.2
v 0 1.4 -0.2
v -0.1 0.8 -0.5
v -0.1 0.9 -0.5
v -0.1 1.3 -0.5
v -0.1 1.4 -0.5
v 0 0.8 -0.5
v 0 0.9 -0.5
v 0 1.3 -0.5
v 0 1.4 -0.5
v -0.1 0.9 -0.6
v -0.1 1.3 -0.6
v 0 0.9 -0.6
v 0 1.3 -0.6
v -0.1 1.5 -0.8
v -0.1 1.6 -0.8
v 0 1.5 -0.8
v 0 1.6 -0.8
v -0.1 1.4 -0.9
v -0.1 1.5 -0.9
v 0 1.4 -0.9
v 0 1.5 -0.9
v -0.1 0 -1
v -0.1 0.2 -1
v -0.1 0.9 -1
v -0.1 1.4 -1
v 0 0 -1
v 0 0.2 -1
v 0 0.9 -1
v 0 1.4 -1
v -0.1 0.2 -1.1
v -0.1 0.3 -1.1
v -0.1 0.9 -1.1
v 0 0.2 -1.1
v 0 0.3 -1.1
v 0 0.9 -1.1
v -0.1 0 -1.3
v -0.1 1.2 -1.3
v 0 0 -1.3
v 0 1.2 -1.3
v -0.1 1.2 -1.4
v -0.1 1.3 -1.4
v -0.1 1.4 -1.4
v -0.1 2.4 -1.4
v -0.1 2.5 -1.4
v -0.1 2.6 -1.4
v 0 1.2 -1.4
v 0 1.3 -1.4
v 0 1.4 -1.4
v 0 2.4 -1.4
v 0 2.5 -1.4
v 0 2.6 -1.4
v -0.1 1.4 -1.5
v -0.1 1.6 -1.5
v -0.1 2 -1.5
v -0.1 2.2 -1.5
v -0.1 2.4 -1.5
v 0 1.4 -1.5
v 0 1.6 -1.5
v 0 2 -1.5
v 0 2.2 -1.5
v 0 2.4 -1.5
v -0.1 0 -1.8
v -0.1 0.2 -1.8
v -0.1 1.4 -1.8
v -0.1 1.5 -1.8
v 0 0 -1.8
v 0 0.2 -1.8
v 0 1.4 -1.8
v 0 1.5 -1.8
v -0.1 0.2 -1.9
v -0.1 0.3 -1.9
v -0.1 0.4 -1.9
v -0.1 1.4 -1.9
v 0 0.2 -1.9
v 0 0.3 -1.9
v 0 0.4 -1.9
v 0 1.4 -1.9
v -0.1 0.3 -2
v -0.1 0.4 -2
v 0 0.3 -2
v 0 0.4 -2
v -0.1 0 0.6
v 0 0 0.6
v -0.1 0 0.5
v 0 0 0.5
v -0.1 0 -0.1
v 0 0 -0.1
v -0.1 0 -0.2
v 0 0 -0.2
v -0.1 0 -0.9
v 0 0 -0.9
v -0.1 0 -1
v 0 0 -1
v -0.1 0 -1.2
v 0 0 -1.2
v -0.1 0 -1.3
v 0 0 -1.3
v -0.1 0 -1.7
v 0 0 -1.7
v -0.1 0 -1.8
v 0 0 -1.8
v -0.1 0.2 0.7
v 0 0.2 0.7
v -0.1 0.2 0.6
v 0 0.2 0.6
v -0.1 0.2 0.5
v 0 0.2 0.5
v -0.1 0.2 0.4
v 0 0.2 0.4
v -0.1 0.2 -0.8
v 0 0.2 -0.8
v -0.1 0.2 -0.9
v 0 0.2 -0.9
v -0.1 0.2 -1
v 0 0.2 -1
v -0.1 0.2 -1.1
v 0 0.2 -1.1
v -0.1 0.2 -1.6
v 0 0.2 -1.6
v -0.1 0.2 -1.7
v 0 0.2 -1.7
v -0.1 0.2 -1.8
v 0 0.2 -1.8
v -0.1 0.2 -1.9
v 0 0.2 -1.9
v -0.1 0.3 0.8
v 0 0.3 0.8
v -0.1 0.3 0.7
v 0 0.3 0.7
v -0.1 0.3 0.4
v 0 0.3 0.4
v -0.1 0.3 0.3
v 0 0.3 0.3
v -0.1 0.3 -1.5
v 0 0.3 -1.5
v -0.1 0.3 -1.6
v 0 0.3 -1.6
v -0.1 0.3 -1.9
v 0 0.3 -1.9
v -0.1 0.3 -2
v 0 0.3 -2
v -0.1 0.4 -0.7
v 0 0.4 -0.7
v -0.1 0.4 -0.8
v 0 0.4 -0.8
v -0.1 0.8 0.2
v 0 0.8 0.2
v -0.1 0.8 0.1
v 0 0.8 0.1
v -0.1 0.8 -0.4
v 0 0.8 -0.4
v -0.1 0.8 -0.5
v 0 0.8 -0.5
v -0.1 0.9 0.3
v 0 0.9 0.3
v -0.1 0.9 0.2
v 0 0.9 0.2
v -0.1 0.9 0.1
v 0 0.9 0.1
v -0.1 0.9 0
v 0 0.9 0
v -0.1 0.9 -0.3
v 0 0.9 -0.3
v -0.1 0.9 -0.4
v 0 0.9 -0.4
v -0.1 0.9 -0.5
v 0 0.9 -0.5
v -0.1 0.9 -0.6
v 0 0.9 -0.6
v -0.1 1 0
v 0 1 0
v -0.1 1 -0.1
v 0 1 -0.1
v -0.1 1 -0.2
v 0 1 -0.2
v -0.1 1 -0.3
v 0 1 -0.3
v -0.1 1.2 -1.1
v 0 1.2 -1.1
v -0.1 1.2 -1.2
v 0 1.2 -1.2
v -0.1 1.2 -1.3
v 0 1.2 -1.3
v -0.1 1.2 -1.4
v 0 1.2 -1.4
v -0.1 1.4 -1.4
v 0 1.4 -1.4
v -0.1 1.4 -1.5
v 0 1.4 -1.5
v -0.1 2.5 -1.1
v 0 2.5 -1.1
v -0.1 2.5 -1.2
v 0 2.5 -1.2
v -0.1 0.3 0.7
v 0 0.3 0.7
v -0.1 0.3 0.6
v 0 0.3 0.6
v -0.1 0.3 0.5
v 0 0.3 0.5
v -0.1 0.3 0.4
v 0 0.3 0.4
v -0.1 0.4 -1.5
v 0 0.4 -1.5
v -0.1 0.4 -1.6
v 0 0.4 -1.6
v -0.1 0.4 -1.9
v 0 0.4 -1.9
v -0.1 0.4 -2
v 0 0.4 -2
v -0.1 0.5 0.8
v 0 0.5 0.8
v -0.1 0.5 0.7
v 0 0.5 0.7
v -0.1 0.5 0.4
v 0 0.5 0.4
v -0.1 0.5 0.3
v 0 0.5 0.3
v -0.1 0.9 -1
v 0 0.9 -1
v -0.1 0.9 -1.1
v 0 0.9 -1.1
v -0.1 1 0.6
v 0 1 0.6
v -0.1 1 0.5
v 0 1 0.5
v -0.1 1.2 0
v 0 1.2 0
v -0.1 1.2 -0.1
v 0 1.2 -0.1
v -0.1 1.2 -0.2
v 0 1.2 -0.2
v -0.1 1.2 -0.3
v 0 1.2 -0.3
v -0.1 1.3 0.3
v 0 1.3 0.3
v -0.1 1.3 0.2
v 0 1.3 0.2
v -0.1 1.3 0.1
v 0 1.3 0.1
v -0.1 1.3 0
v 0 1.3 0
v -0.1 1.3 -0.3
v 0 1.3 -0.3
v -0.1 1.3 -0.4
v 0 1.3 -0.4
v -0.1 1.3 -0.5
v 0 1.3 -0.5
v -0.1 1.3 -0.6
v 0 1.3 -0.6
v -0.1 1.3 -1.1
v 0 1.3 -1.1
v -0.1 1.3 -1.2
v 0 1.3 -1.2
v -0.1 1.4 0.2
v 0 1.4 0.2
v -0.1 1.4 0.1
v 0 1.4 0.1
v -0.1 1.4 -0.1
v 0 1.4 -0.1
v -0.1 1.4 -0.2
v 0 1.4 -0.2
v -0.1 1.4 -0.4
v 0 1.4 -0.4
v -0.1 1.4 -0.5
v 0 1.4 -0.5
v -0.1 1.4 -0.9
v 0 1.4 -0.9
v -0.1 1.4 -1
v 0 1.4 -1
v -0.1 1.4 -1.6
v 0 1.4 -1.6
v -0.1 1.4 -1.7
v 0 1.4 -1.7
v -0.1 1.4 -1.8
v 0 1.4 -1.8
v -0.1 1.4 -1.9
v 0 1.4 -1.9
v -0.1 1.5 -0.8
v 0 1.5 -0.8
v -0.1 1.5 -0.9
v 0 1.5 -0.9
v -0.1 1.5 -1.7
v 0 1.5 -1.7
v -0.1 1.5 -1.8
v 0 1.5 -1.8
v -0.1 1.6 -0.7
v 0 1.6 -0.7
v -0.1 1.6 -0.8
v 0 1.6 -0.8
v -0.1 2.4 -1.4
v 0 2.4 -1.4
v -0.1 2.4 -1.5
v 0 2.4 -1.5
v -0.1 2.6 -1.1
v 0 2.6 -1.1
v -0.1 2.6 -1.4
v 0 2.6 -1.4

# faces
f 12/5/1 2/5/1 1/5/1
f 13/5/1 2/5/1 12/5/1
f 16/5/1 6/5/1 5/5/1
f 17/5/1 6/5/1 16/5/1
f 20/5/1 10/5/1 9/5/1
f 21/5/1 10/5/1 20/5/1
f 24/8/1 12/8/1 11/8/1
f 25/2/1 13/2/1 12/2/1
f 25/8/1 12/8/1 24/8/1
f 26/8/1 14/8/1 13/8/1
f 26/2/1 13/2/1 25/2/1
f 27/8/1 14/8/1 26/8/1
f 29/5/1 16/5/1 15/5/1
f 30/6/1 17/6/1 16/6/1
f 30/5/1 16/5/1 29/5/1
f 31/5/1 18/5/1 17/5/1
f 31/6/1 17/6/1 30/6/1
f 32/5/1 18/5/1 31/5/1
f 34/5/1 20/5/1 19/5/1
f 35/6/1 21/6/1 20/6/1
f 35/5/1 20/5/1 34/5/1
f 36/5/1 22/5/1 21/5/1
f 36/6/1 21/6/1 35/6/1
f 37/5/1 22/5/1 36/5/1
f 40/8/1 30/8/1 29/8/1
f 41/4/1 31/4/1 30/4/1
f 41/8/1 30/8/1 40/8/1
f 42/8/1 34/8/1 33/8/1
f 43/7/1 36/7/1 35/7/1
f 43/8/1 34/8/1 42/8/1
f 43/7/1 35/7/1 34/7/1
f 43/7/1 37/7/1 36/7/1
f 44/7/1 37/7/1 43/7/1
f 45/7/1 37/7/1 44/7/1
f 46/8/1 38/8/1 37/8/1
f 46/7/1 37/7/1 45/7/1
f 47/8/1 38/8/1 46/8/1
f 48/8/1 24/8/1 23/8/1
f 49/8/1 24/8/1 48/8/1
f 50/8/1 28/8/1 27/8/1
f 51/8/1 28/8/1 50/8/1
f 52/7/1 41/7/1 40/7/1
f 52/8/1 40/8/1 39/8/1
f 53/4/1 31/4/1 41/4/1
f 53/7/1 41/7/1 52/7/1
f 54/4/1 53/4/1 52/4/1
f 54/8/1 52/8/1 39/8/1
f 55/4/1 31/4/1 53/4/1
f 55/4/1 53/4/1 54/4/1
f 61/8/1 57/8/1 56/8/1
f 62/8/1 57/8/1 61/8/1
f 65/8/1 59/8/1 58/8/1
f 66/8/1 59/8/1 65/8/1
f 68/7/1 55/7/1 54/7/1
f 68/4/1 31/4/1 55/4/1
f 69/8/1 32/8/1 31/8/1
f 69/4/1 31/4/1 68/4/1
f 70/8/1 32/8/1 69/8/1
f 71/8/1 26/8/1 25/8/1
f 72/8/1 26/8/1 71/8/1
f 73/8/1 61/8/1 60/8/1
f 73/10/1 62/10/1 61/10/1
f 74/8/1 63/8/1 62/8/1
f 74/10/1 62/10/1 73/10/1
f 75/8/1 63/8/1 74/8/1
f 76/5/1 4/5/1 3/5/1
f 77/5/1 4/5/1 76/5/1
f 78/8/1 65/8/1 64/8/1
f 79/1/1 66/1/1 65/1/1
f 79/8/1 65/8/1 78/8/1
f 80/8/1 67/8/1 66/8/1
f 80/1/1 66/1/1 79/1/1
f 81/1/1 75/1/1 74/1/1
f 81/8/1 73/8/1 60/8/1
f 81/1/1 74/1/1 73/1/1
f 82/1/1 75/1/1 81/1/1
f 83/10/1 79/10/1 78/10/1
f 83/10/1 80/10/1 79/10/1
f 84/8/1 67/8/1 80/8/1
f 84/10/1 80/10/1 83/10/1
f 85/8/1 54/8/1 39/8/1
f 85/7/1 68/7/1 54/7/1
f 86/8/1 69/8/1 68/8/1
f 86/7/1 68/7/1 85/7/1
f 87/10/1 82/10/1 81/10/1
f 87/8/1 81/8/1 60/8/1
f 88/1/1 75/1/1 82/1/1
f 88/10/1 82/10/1 87/10/1
f 89/8/1 76/8/1 75/8/1
f 89/1/1 75/1/1 88/1/1
f 90/5/1 77/5/1 76/5/1
f 90/8/1 76/8/1 89/8/1
f 91/8/1 78/8/1 77/8/1
f 91/5/1 77/5/1 90/5/1
f 92/10/1 83/10/1 78/10/1
f 92/8/1 78/8/1 91/8/1
f 93/1/1 84/1/1 83/1/1
f 93/10/1 83/10/1 92/10/1
f 95/5/1 8/5/1 7/5/1
f 96/5/1 8/5/1 95/5/1
f 98/8/1 87/8/1 60/8/1
f 99/1/1 88/1/1 87/1/1
f 99/8/1 87/8/1 98/8/1
f 100/8/1 89/8/1 88/8/1
f 100/1/1 88/1/1 99/1/1
f 101/8/1 89/8/1 100/8/1
f 102/8/1 93/8/1 92/8/1
f 103/1/1 84/1/1 93/1/1
f 103/8/1 93/8/1 102/8/1
f 104/8/1 67/8/1 84/8/1
f 104/1/1 84/1/1 103/1/1
f 105/8/1 67/8/1 104/8/1
f 106/3/1 97/3/1 96/3/1
f 106/3/1 96/3/1 95/3/1
f 106/3/1 95/3/1 94/3/1
f 107/3/1 97/3/1 106/3/1
f 108/3/1 97/3/1 107/3/1
f 109/3/1 97/3/1 108/3/1
f 110/8/1 100/8/1 99/8/1
f 111/8/1 100/8/1 110/8/1
f 112/5/1 91/5/1 90/5/1
f 113/5/1 91/5/1 112/5/1
f 114/8/1 104/8/1 103/8/1
f 115/8/1 104/8/1 114/8/1
f 116/8/1 85/8/1 39/8/1
f 116/4/1 86/4/1 85/4/1
f 117/8/1 69/8/1 86/8/1
f 117/4/1 86/4/1 116/4/1
f 118/8/1 69/8/1 117/8/1
f 119/9/1 109/9/1 108/9/1
f 119/1/1 108/1/1 107/1/1
f 120/9/1 109/9/1 119/9/1
f 122/8/1 44/8/1 43/8/1
f 123/7/1 45/7/1 44/7/1
f 123/8/1 44/8/1 122/8/1
f 124/8/1 46/8/1 45/8/1
f 124/7/1 45/7/1 123/7/1
f 125/8/1 46/8/1 124/8/1
f 126/8/1 117/8/1 116/8/1
f 126/8/1 116/8/1 39/8/1
f 127/8/1 117/8/1 126/8/1
f 128/1/1 119/1/1 107/1/1
f 129/10/1 120/10/1 119/10/1
f 129/1/1 119/1/1 128/1/1
f 130/8/1 124/8/1 123/8/1
f 131/8/1 124/8/1 130/8/1
f 132/8/1 126/8/1 39/8/1
f 133/8/1 126/8/1 132/8/1
f 134/10/1 120/10/1 129/10/1
f 134/3/1 121/3/1 120/3/1
f 134/10/1 129/10/1 128/10/1
f 135/3/1 121/3/1 134/3/1
f 136/10/1 134/10/1 128/10/1
f 137/9/1 135/9/1 134/9/1
f 137/10/1 134/10/1 136/10/1
f 138/10/1 136/10/1 128/10/1
f 138/1/1 137/1/1 136/1/1
f 139/9/1 135/9/1 137/9/1
f 139/1/1 137/1/1 138/1/1
f 140/10/1 139/10/1 138/10/1
f 140/9/1 135/9/1 139/9/1
f 141/9/1 135/9/1 140/9/1
f 142/10/1 138/10/1 128/10/1
f 142/10/1 140/10/1 138/10/1
f 143/10/1 140/10/1 142/10/1
f 144/3/1 141/3/1 140/3/1
f 144/10/1 140/10/1 143/10/1
f 145/3/1 141/3/1 144/3/1
f 146/1/1 143/1/1 142/1/1
f 146/10/1 144/10/1 143/10/1
f 147/9/1 145/9/1 144/9/1
f 147/10/1 144/10/1 146/10/1
f 148/9/1 145/9/1 147/9/1
f 150/1/1 146/1/1 142/1/1
f 151/9/1 147/9/1 146/9/1
f 151/1/1 146/1/1 150/1/1
f 152/9/1 147/9/1 151/9/1
f 153/3/1 150/3/1 149/3/1
f 153/3/1 151/3/1 150/3/1
f 153/3/1 152/3/1 151/3/1
f 154/3/1 152/3/1 153/3/1
f 155/5/2 156/5/2 166/5/2
f 166/5/2 156/5/2 167/5/2
f 159/5/2 160/5/2 170/5/2
f 170/5/2 160/5/2 171/5/2
f 163/5/2 164/5/2 174/5/2
f 174/5/2 164/5/2 175/5/2
f 165/8/2 166/8/2 178/8/2
f 166/2/2 167/2/2 179/2/2
f 178/8/2 166/8/2 179/8/2
f 167/8/2 168/8/2 180/8/2
f 179/2/2 167/2/2 180/2/2
f 180/8/2 168/8/2 181/8/2
f 169/5/2 170/5/2 183/5/2
f 170/6/2 171/6/2 184/6/2
f 183/5/2 170/5/2 184/5/2
f 171/5/2 172/5/2 185/5/2
f 184/6/2 171/6/2 185/6/2
f 185/5/2 172/5/2 186/5/2
f 173/5/2 174/5/2 188/5/2
f 174/6/2 175/6/2 189/6/2
f 188/5/2 174/5/2 189/5/2
f 175/5/2 176/5/2 190/5/2
f 189/6/2 175/6/2 190/6/2
f 190/5/2 176/5/2 191/5/2
f 183/8/2 184/8/2 194/8/2
f 184/4/2 185/4/2 195/4/2
f 194/8/2 184/8/2 195/8/2
f 187/8/2 188/8/2 196/8/2
f 189/7/2 190/7/2 197/7/2
f 196/8/2 188/8/2 197/8/2
f 188/7/2 189/7/2 197/7/2
f 190/7/2 191/7/2 197/7/2
f 197/7/2 191/7/2 198/7/2
f 198/7/2 191/7/2 199/7/2
f 191/8/2 192/8/2 200/8/2
f 199/7/2 191/7/2 200/7/2
f 200/8/2 192/8/2 201/8/2
f 177/8/2 178/8/2 202/8/2
f 202/8/2 178/8/2 203/8/2
f 181/8/2 182/8/2 204/8/2
f 204/8/2 182/8/2 205/8/2
f 194/7/2 195/7/2 206/7/2
f 193/8/2 194/8/2 206/8/2
f 195/4/2 185/4/2 207/4/2
f 206/7/2 195/7/2 207/7/2
f 206/4/2 207/4/2 208/4/2
f 193/8/2 206/8/2 208/8/2
f 207/4/2 185/4/2 209/4/2
f 208/4/2 207/4/2 209/4/2
f 210/8/2 211/8/2 215/8/2
f 215/8/2 211/8/2 216/8/2
f 212/8/2 213/8/2 219/8/2
f 219/8/2 213/8/2 220/8/2
f 208/7/2 209/7/2 222/7/2
f 209/4/2 185/4/2 222/4/2
f 185/8/2 186/8/2 223/8/2
f 222/4/2 185/4/2 223/4/2
f 223/8/2 186/8/2 224/8/2
f 179/8/2 180/8/2 225/8/2
f 225/8/2 180/8/2 226/8/2
f 214/8/2 215/8/2 227/8/2
f 215/10/2 216/10/2 227/10/2
f 216/8/2 217/8/2 228/8/2
f 227/10/2 216/10/2 228/10/2
f 228/8/2 217/8/2 229/8/2
f 157/5/2 158/5/2 230/5/2
f 230/5/2 158/5/2 231/5/2
f 218/8/2 219/8/2 232/8/2
f 219/1/2 220/1/2 233/1/2
f 232/8/2 219/8/2 233/8/2
f 220/8/2 221/8/2 234/8/2
f 233/1/2 220/1/2 234/1/2
f 228/1/2 229/1/2 235/1/2
f 214/8/2 227/8/2 235/8/2
f 227/1/2 228/1/2 235/1/2
f 235/1/2 229/1/2 236/1/2
f 232/10/2 233/10/2 237/10/2
f 233/10/2 234/10/2 237/10/2
f 234/8/2 221/8/2 238/8/2
f 237/10/2 234/10/2 238/10/2
f 193/8/2 208/8/2 239/8/2
f 208/7/2 222/7/2 239/7/2
f 222/8/2 223/8/2 240/8/2
f 239/7/2 222/7/2 240/7/2
f 235/10/2 236/10/2 241/10/2
f 214/8/2 235/8/2 241/8/2
f 236/1/2 229/1/2 242/1/2
f 241/10/2 236/10/2 242/10/2
f 229/8/2 230/8/2 243/8/2
f 242/1/2 229/1/2 243/1/2
f 230/5/2 231/5/2 244/5/2
f 243/8/2 230/8/2 244/8/2
f 231/8/2 232/8/2 245/8/2
f 244/5/2 231/5/2 245/5/2
f 232/10/2 237/10/2 246/10/2
f 245/8/2 232/8/2 246/8/2
f 237/1/2 238/1/2 247/1/2
f 246/10/2 237/10/2 247/10/2
f 161/5/2 162/5/2 249/5/2
f 249/5/2 162/5/2 250/5/2
f 214/8/2 241/8/2 252/8/2
f 241/1/2 242/1/2 253/1/2
f 252/8/2 241/8/2 253/8/2
f 242/8/2 243/8/2 254/8/2
f 253/1/2 242/1/2 254/1/2
f 254/8/2 243/8/2 255/8/2
f 246/8/2 247/8/2 256/8/2
f 247/1/2 238/1/2 257/1/2
f 256/8/2 247/8/2 257/8/2
f 238/8/2 221/8/2 258/8/2
f 257/1/2 238/1/2 258/1/2
f 258/8/2 221/8/2 259/8/2
f 250/3/2 251/3/2 260/3/2
f 249/3/2 250/3/2 260/3/2
f 248/3/2 249/3/2 260/3/2
f 260/3/2 251/3/2 261/3/2
f 261/3/2 251/3/2 262/3/2
f 262/3/2 251/3/2 263/3/2
f 253/8/2 254/8/2 264/8/2
f 264/8/2 254/8/2 265/8/2
f 244/5/2 245/5/2 266/5/2
f 266/5/2 245/5/2 267/5/2
f 257/8/2 258/8/2 268/8/2
f 268/8/2 258/8/2 269/8/2
f 193/8/2 239/8/2 270/8/2
f 239/4/2 240/4/2 270/4/2
f 240/8/2 223/8/2 271/8/2
f 270/4/2 240/4/2 271/4/2
f 271/8/2 223/8/2 272/8/2
f 262/9/2 263/9/2 273/9/2
f 261/1/2 262/1/2 273/1/2
f 273/9/2 263/9/2 274/9/2
f 197/8/2 198/8/2 276/8/2
f 198/7/2 199/7/2 277/7/2
f 276/8/2 198/8/2 277/8/2
f 199/8/2 200/8/2 278/8/2
f 277/7/2 199/7/2 278/7/2
f 278/8/2 200/8/2 279/8/2
f 270/8/2 271/8/2 280/8/2
f 193/8/2 270/8/2 280/8/2
f 280/8/2 271/8/2 281/8/2
f 261/1/2 273/1/2 282/1/2
f 273/10/2 274/10/2 283/10/2
f 282/1/2 273/1/2 283/1/2
f 277/8/2 278/8/2 284/8/2
f 284/8/2 278/8/2 285/8/2
f 193/8/2 280/8/2 286/8/2
f 286/8/2 280/8/2 287/8/2
f 283/10/2 274/10/2 288/10/2
f 274/3/2 275/3/2 288/3/2
f 282/10/2 283/10/2 288/10/2
f 288/3/2 275/3/2 289/3/2
f 282/10/2 288/10/2 290/10/2
f 288/9/2 289/9/2 291/9/2
f 290/10/2 288/10/2 291/10/2
f 282/10/2 290/10/2 292/10/2
f 290/1/2 291/1/2 292/1/2
f 291/9/2 289/9/2 293/9/2
f 292/1/2 291/1/2 293/1/2
f 292/10/2 293/10/2 294/10/2
f 293/9/2 289/9/2 294/9/2
f 294/9/2 289/9/2 295/9/2
f 282/10/2 292/10/2 296/10/2
f 292/10/2 294/10/2 296/10/2
f 296/10/2 294/10/2 297/10/2
f 294/3/2 295/3/2 298/3/2
f 297/10/2 294/10/2 298/10/2
f 298/3/2 295/3/2 299/3/2
f 296/1/2 297/1/2 300/1/2
f 297/10/2 298/10/2 300/10/2
f 298/9/2 299/9/2 301/9/2
f 300/10/2 298/10/2 301/10/2
f 301/9/2 299/9/2 302/9/2
f 296/1/2 300/1/2 304/1/2
f 300/9/2 301/9/2 305/9/2
f 304/1/2 300/1/2 305/1/2
f 305/9/2 301/9/2 306/9/2
f 303/3/2 304/3/2 307/3/2
f 304/3/2 305/3/2 307/3/2
f 305/3/2 306/3/2 307/3/2
f 307/3/2 306/3/2 308/3/2
f 311/8/3 310/8/3 309/8/3
f 312/8/3 310/8/3 311/8/3
f 315/8/3 314/8/3 313/8/3
f 316/8/3 314/8/3 315/8/3
f 321/5/3 318/5/3 317/5/3
f 322/5/3 318/5/3 321/5/3
f 323/8/3 320/8/3 319/8/3
f 324/8/3 320/8/3 323/8/3
f 327/8/3 326/8/3 325/8/3
f 328/8/3 326/8/3 327/8/3
f 331/8/3 330/8/3 329/8/3
f 332/8/3 330/8/3 331/8/3
f 337/8/3 334/8/3 333/8/3
f 338/8/3 334/8/3 337/8/3
f 339/8/3 336/8/3 335/8/3
f 340/8/3 336/8/3 339/8/3
f 345/5/3 342/5/3 341/5/3
f 346/5/3 342/5/3 345/5/3
f 347/5/3 344/5/3 343/5/3
f 348/5/3 344/5/3 347/5/3
f 353/8/3 350/8/3 349/8/3
f 354/8/3 350/8/3 353/8/3
f 355/8/3 352/8/3 351/8/3
f 356/8/3 352/8/3 355/8/3
f 361/8/3 358/8/3 357/8/3
f 362/8/3 358/8/3 361/8/3
f 363/8/3 360/8/3 359/8/3
f 364/8/3 360/8/3 363/8/3
f 367/8/3 366/8/3 365/8/3
f 368/8/3 366/8/3 367/8/3
f 372/5/3 370/5/3 369/5/3
f 373/8/3 371/8/3 370/8/3
f 373/5/3 370/5/3 372/5/3
f 374/8/3 371/8/3 373/8/3
f 377/5/3 376/5/3 375/5/3
f 378/5/3 376/5/3 377/5/3
f 383/3/3 380/3/3 379/3/3
f 384/3/3 380/3/3 383/3/3
f 385/3/3 382/3/3 381/3/3
f 386/3/3 382/3/3 385/3/3
f 393/5/3 388/5/3 387/5/3
f 394/5/3 388/5/3 393/5/3
f 395/1/3 390/1/3 389/1/3
f 396/10/3 391/10/3 390/10/3
f 396/1/3 390/1/3 395/1/3
f 397/1/3 392/1/3 391/1/3
f 397/10/3 391/10/3 396/10/3
f 398/1/3 392/1/3 397/1/3
f 401/8/3 400/8/3 399/8/3
f 402/8/3 400/8/3 401/8/3
f 407/5/3 404/5/3 403/5/3
f 408/5/3 404/5/3 407/5/3
f 409/8/3 406/8/3 405/8/3
f 410/8/3 406/8/3 409/8/3
f 415/5/3 412/5/3 411/5/3
f 416/5/3 412/5/3 415/5/3
f 417/8/3 414/8/3 413/8/3
f 418/8/3 414/8/3 417/8/3
f 419/8/4 420/8/4 421/8/4
f 421/8/4 420/8/4 422/8/4
f 423/5/4 424/5/4 427/5/4
f 427/5/4 424/5/4 428/5/4
f 425/8/4 426/8/4 429/8/4
f 429/8/4 426/8/4 430/8/4
f 431/8/4 432/8/4 433/8/4
f 433/8/4 432/8/4 434/8/4
f 435/8/4 436/8/4 437/8/4
f 437/8/4 436/8/4 438/8/4
f 439/8/4 440/8/4 443/8/4
f 443/8/4 440/8/4 444/8/4
f 441/8/4 442/8/4 445/8/4
f 445/8/4 442/8/4 446/8/4
f 447/8/4 448/8/4 451/8/4
f 451/8/4 448/8/4 452/8/4
f 449/8/4 450/8/4 453/8/4
f 453/8/4 450/8/4 454/8/4
f 455/5/4 456/5/4 459/5/4
f 459/5/4 456/5/4 460/5/4
f 457/5/4 458/5/4 461/5/4
f 461/5/4 458/5/4 462/5/4
f 463/8/4 464/8/4 467/8/4
f 467/8/4 464/8/4 468/8/4
f 465/8/4 466/8/4 469/8/4
f 469/8/4 466/8/4 470/8/4
f 471/8/4 472/8/4 473/8/4
f 473/8/4 472/8/4 474/8/4
f 475/8/4 476/8/4 477/8/4
f 477/8/4 476/8/4 478/8/4
f 479/8/4 480/8/4 481/8/4
f 481/8/4 480/8/4 482/8/4
f 483/5/4 484/5/4 487/5/4
f 487/5/4 484/5/4 488/5/4
f 485/8/4 486/8/4 489/8/4
f 489/8/4 486/8/4 490/8/4
f 491/5/4 492/5/4 494/5/4
f 492/8/4 493/8/4 495/8/4
f 494/5/4 492/5/4 495/5/4
f 495/8/4 493/8/4 496/8/4
f 497/5/4 498/5/4 499/5/4
f 499/5/4 498/5/4 500/5/4
f 501/3/4 502/3/4 507/3/4
f 502/9/4 503/9/4 508/9/4
f 507/3/4 502/3/4 508/3/4
f 508/9/4 503/9/4 509/9/4
f 504/9/4 505/9/4 510/9/4
f 505/3/4 506/3/4 511/3/4
f 510/9/4 505/9/4 511/9/4
f 511/3/4 506/3/4 512/3/4
f 513/3/4 514/3/4 518/3/4
f 514/9/4 515/9/4 519/9/4
f 518/3/4 514/3/4 519/3/4
f 515/3/4 516/3/4 520/3/4
f 519/9/4 515/9/4 520/9/4
f 516/9/4 517/9/4 521/9/4
f 520/3/4 516/3/4 521/3/4
f 521/9/4 517/9/4 522/9/4
f 523/5/4 524/5/4 527/5/4
f 527/5/4 524/5/4 528/5/4
f 525/8/4 526/8/4 529/8/4
f 529/8/4 526/8/4 530/8/4
f 531/5/4 532/5/4 535/5/4
f 535/5/4 532/5/4 536/5/4
f 533/8/4 534/8/4 537/8/4
f 537/8/4 534/8/4 538/8/4
f 539/8/4 540/8/4 541/8/4
f 541/8/4 540/8/4 542/8/4
f 545/5/5 544/5/5 543/5/5
f 546/5/5 544/5/5 545/5/5
f 549/5/5 548/5/5 547/5/5
f 550/5/5 548/5/5 549/5/5
f 553/5/5 552/5/5 551/5/5
f 554/5/5 552/5/5 553/5/5
f 557/5/5 556/5/5 555/5/5
f 558/5/5 556/5/5 557/5/5
f 561/5/5 560/5/5 559/5/5
f 562/5/5 560/5/5 561/5/5
f 565/8/5 564/8/5 563/8/5
f 566/8/5 564/8/5 565/8/5
f 569/8/5 568/8/5 567/8/5
f 570/8/5 568/8/5 569/8/5
f 573/5/5 572/5/5 571/5/5
f 574/5/5 572/5/5 573/5/5
f 577/5/5 576/5/5 575/5/5
f 578/5/5 576/5/5 577/5/5
f 581/5/5 580/5/5 579/5/5
f 582/5/5 580/5/5 581/5/5
f 585/5/5 584/5/5 583/5/5
f 586/5/5 584/5/5 585/5/5
f 589/8/5 588/8/5 587/8/5
f 590/8/5 588/8/5 589/8/5
f 593/8/5 592/8/5 591/8/5
f 594/8/5 592/8/5 593/8/5
f 597/8/5 596/8/5 595/8/5
f 598/8/5 596/8/5 597/8/5
f 601/8/5 600/8/5 599/8/5
f 602/8/5 600/8/5 601/8/5
f 605/8/5 604/8/5 603/8/5
f 606/8/5 604/8/5 605/8/5
f 609/8/5 608/8/5 607/8/5
f 610/8/5 608/8/5 609/8/5
f 613/8/5 612/8/5 611/8/5
f 614/8/5 612/8/5 613/8/5
f 617/8/5 616/8/5 615/8/5
f 618/8/5 616/8/5 617/8/5
f 621/8/5 620/8/5 619/8/5
f 622/8/5 620/8/5 621/8/5
f 625/8/5 624/8/5 623/8/5
f 626/8/5 624/8/5 625/8/5
f 629/8/5 628/8/5 627/8/5
f 630/8/5 628/8/5 629/8/5
f 633/8/5 632/8/5 631/8/5
f 634/8/5 632/8/5 633/8/5
f 637/8/5 636/8/5 635/8/5
f 638/8/5 636/8/5 637/8/5
f 641/3/5 640/3/5 639/3/5
f 642/3/5 640/3/5 641/3/5
f 645/3/5 644/3/5 643/3/5
f 646/3/5 644/3/5 645/3/5
f 649/3/5 648/3/5 647/3/5
f 650/3/5 648/3/5 649/3/5
f 653/3/5 652/3/5 651/3/5
f 654/3/5 652/3/5 653/3/5
f 655/8/6 656/8/6 657/8/6
f 657/8/6 656/8/6 658/8/6
f 659/8/6 660/8/6 661/8/6
f 661/8/6 660/8/6 662/8/6
f 663/8/6 664/8/6 665/8/6
f 665/8/6 664/8/6 666/8/6
f 667/8/6 668/8/6 669/8/6
f 669/8/6 668/8/6 670/8/6
f 671/8/6 672/8/6 673/8/6
f 673/8/6 672/8/6 674/8/6
f 675/8/6 676/8/6 677/8/6
f 677/8/6 676/8/6 678/8/6
f 679/8/6 680/8/6 681/8/6
f 681/8/6 680/8/6 682/8/6
f 683/8/6 684/8/6 685/8/6
f 685/8/6 684/8/6 686/8/6
f 687/8/6 688/8/6 689/8/6
f 689/8/6 688/8/6 690/8/6
f 691/8/6 692/8/6 693/8/6
f 693/8/6 692/8/6 694/8/6
f 695/8/6 696/8/6 697/8/6
f 697/8/6 696/8/6 698/8/6
f 699/8/6 700/8/6 701/8/6
f 701/8/6 700/8/6 702/8/6
f 703/8/6 704/8/6 705/8/6
f 705/8/6 704/8/6 706/8/6
f 707/8/6 708/8/6 709/8/6
f 709/8/6 708/8/6 710/8/6
f 711/3/6 712/3/6 713/3/6
f 713/3/6 712/3/6 714/3/6
f 715/8/6 716/8/6 717/8/6
f 717/8/6 716/8/6 718/8/6
f 719/5/6 720/5/6 721/5/6
f 721/5/6 720/5/6 722/5/6
f 723/8/6 724/8/6 725/8/6
f 725/8/6 724/8/6 726/8/6
f 727/8/6 728/8/6 729/8/6
f 729/8/6 728/8/6 730/8/6
f 731/8/6 732/8/6 733/8/6
f 733/8/6 732/8/6 734/8/6
f 735/8/6 736/8/6 737/8/6
f 737/8/6 736/8/6 738/8/6
f 739/8/6 740/8/6 741/8/6
f 741/8/6 740/8/6 742/8/6
f 743/8/6 744/8/6 745/8/6
f 745/8/6 744/8/6 746/8/6
f 747/8/6 748/8/6 749/8/6
f 749/8/6 748/8/6 750/8/6
f 751/9/6 752/9/6 753/9/6
f 753/9/6 752/9/6 754/9/6
f 755/3/6 756/3/6 757/3/6
f 757/3/6 756/3/6 758/3/6
